<mxfile host="app.diagrams.net" modified="2023-06-05T15:44:26.234Z" agent="Mozilla/5.0 (Macintosh; Intel Mac OS X 10_15_7) AppleWebKit/605.1.15 (KHTML, like Gecko) Version/16.3 Safari/605.1.15" version="21.3.6" etag="IbidNHG3p3rm_VEPTUXl" type="device">
  <diagram id="tPg7lvVMtvuBfPQgrAko" name="Страница 1">
    <mxGraphModel dx="1323" dy="958" grid="1" gridSize="10" guides="1" tooltips="1" connect="1" arrows="1" fold="1" page="1" pageScale="1" pageWidth="1169" pageHeight="827" math="0" shadow="0">
      <root>
        <mxCell id="0" />
        <mxCell id="1" parent="0" />
        <mxCell id="17" style="edgeStyle=none;html=1;entryX=0;entryY=0.5;entryDx=0;entryDy=0;entryPerimeter=0;fontSize=12;endArrow=none;endFill=0;dashed=1;exitX=1;exitY=0.5;exitDx=0;exitDy=0;exitPerimeter=0;" parent="1" source="7" target="8" edge="1">
          <mxGeometry relative="1" as="geometry">
            <mxPoint x="445" y="203.62" as="sourcePoint" />
          </mxGeometry>
        </mxCell>
        <mxCell id="23" style="edgeStyle=none;html=1;exitX=0.5;exitY=1;exitDx=0;exitDy=0;exitPerimeter=0;fontSize=12;endArrow=classic;endFill=1;" parent="1" source="7" target="18" edge="1">
          <mxGeometry relative="1" as="geometry" />
        </mxCell>
        <mxCell id="7" value="Начало" style="strokeWidth=1;html=1;shape=mxgraph.flowchart.terminator;whiteSpace=wrap;strokeColor=default;gradientColor=none;" parent="1" vertex="1">
          <mxGeometry x="265" y="176.87" width="150" height="52.5" as="geometry" />
        </mxCell>
        <mxCell id="8" value="" style="strokeWidth=1;html=1;shape=mxgraph.flowchart.annotation_2;align=left;labelPosition=right;pointerEvents=1;strokeColor=default;fontSize=13;gradientColor=none;" parent="1" vertex="1">
          <mxGeometry x="455" y="150" width="50" height="106.25" as="geometry" />
        </mxCell>
        <mxCell id="9" value="&lt;span style=&quot;font-size: 12px;&quot;&gt;Гибридный метод кластеризации&lt;/span&gt;" style="text;html=1;align=center;verticalAlign=middle;resizable=0;points=[];autosize=1;strokeColor=none;fillColor=none;fontSize=13;strokeWidth=1;" parent="1" vertex="1">
          <mxGeometry x="485" y="150" width="210" height="30" as="geometry" />
        </mxCell>
        <mxCell id="10" value="Вход:" style="text;html=1;align=center;verticalAlign=middle;resizable=0;points=[];autosize=1;strokeColor=none;fillColor=none;fontSize=12;" parent="1" vertex="1">
          <mxGeometry x="485" y="170.62" width="50" height="30" as="geometry" />
        </mxCell>
        <mxCell id="11" value="массив объектов с числовыми и &lt;br&gt;категориальными признаками (objects),&lt;br&gt;кол-во кластеров (numberClusters)." style="text;html=1;align=left;verticalAlign=middle;resizable=0;points=[];autosize=1;strokeColor=none;fillColor=none;fontSize=12;" parent="1" vertex="1">
          <mxGeometry x="505" y="190.62" width="250" height="60" as="geometry" />
        </mxCell>
        <mxCell id="24" style="edgeStyle=none;html=1;exitX=0.5;exitY=1;exitDx=0;exitDy=0;fontSize=12;endArrow=classic;endFill=1;" parent="1" source="18" target="20" edge="1">
          <mxGeometry relative="1" as="geometry" />
        </mxCell>
        <mxCell id="18" value="Построить матрицу несходства (dissimilarityMatrix)&lt;br&gt;для массива объектов" style="shape=process;whiteSpace=wrap;html=1;backgroundOutline=1;strokeColor=default;strokeWidth=1;fontSize=12;gradientColor=none;" parent="1" vertex="1">
          <mxGeometry x="240" y="260.62" width="200" height="80" as="geometry" />
        </mxCell>
        <mxCell id="GK41XVW3z9lgQCCNO5Ck-39" style="edgeStyle=orthogonalEdgeStyle;rounded=0;orthogonalLoop=1;jettySize=auto;html=1;exitX=0.5;exitY=1;exitDx=0;exitDy=0;entryX=0.5;entryY=0;entryDx=0;entryDy=0;" edge="1" parent="1" source="20" target="GK41XVW3z9lgQCCNO5Ck-37">
          <mxGeometry relative="1" as="geometry" />
        </mxCell>
        <mxCell id="20" value="Применить агломеративный подход иерархической кластеризации к массиву объектов" style="shape=process;whiteSpace=wrap;html=1;backgroundOutline=1;strokeColor=default;strokeWidth=1;fontSize=12;gradientColor=none;" parent="1" vertex="1">
          <mxGeometry x="240" y="370.62" width="200" height="80" as="geometry" />
        </mxCell>
        <mxCell id="26" style="edgeStyle=none;html=1;exitX=0.5;exitY=1;exitDx=0;exitDy=0;fontSize=12;endArrow=classic;endFill=1;" parent="1" source="21" target="22" edge="1">
          <mxGeometry relative="1" as="geometry" />
        </mxCell>
        <mxCell id="21" value="Получить списки номеров объектов, входящих в каждый образованный кластер" style="rounded=0;whiteSpace=wrap;html=1;strokeColor=default;strokeWidth=1;fontSize=12;gradientColor=none;" parent="1" vertex="1">
          <mxGeometry x="515" y="361.87" width="205" height="80" as="geometry" />
        </mxCell>
        <mxCell id="29" style="edgeStyle=none;html=1;exitX=0.5;exitY=1;exitDx=0;exitDy=0;entryX=0.5;entryY=0;entryDx=0;entryDy=0;fontSize=12;endArrow=classic;endFill=1;entryPerimeter=0;" parent="1" source="22" target="30" edge="1">
          <mxGeometry relative="1" as="geometry">
            <mxPoint x="617.5000000000002" y="581.8700000000002" as="targetPoint" />
          </mxGeometry>
        </mxCell>
        <mxCell id="22" value="Уточнить принадлежность элементов к кластерам с помощью метода кластеризации &lt;br&gt;k-прототипов" style="shape=process;whiteSpace=wrap;html=1;backgroundOutline=1;strokeColor=default;strokeWidth=1;fontSize=12;gradientColor=none;" parent="1" vertex="1">
          <mxGeometry x="517.5" y="471.87" width="200" height="80" as="geometry" />
        </mxCell>
        <mxCell id="30" value="Конец" style="strokeWidth=1;html=1;shape=mxgraph.flowchart.terminator;whiteSpace=wrap;strokeColor=default;gradientColor=none;" parent="1" vertex="1">
          <mxGeometry x="542.5" y="585" width="150" height="52.5" as="geometry" />
        </mxCell>
        <mxCell id="31" style="edgeStyle=none;html=1;entryX=0;entryY=0.5;entryDx=0;entryDy=0;entryPerimeter=0;fontSize=12;endArrow=none;endFill=0;dashed=1;exitX=1;exitY=0.5;exitDx=0;exitDy=0;exitPerimeter=0;" parent="1" source="30" target="32" edge="1">
          <mxGeometry relative="1" as="geometry">
            <mxPoint x="692.5" y="609.37" as="sourcePoint" />
          </mxGeometry>
        </mxCell>
        <mxCell id="32" value="" style="strokeWidth=1;html=1;shape=mxgraph.flowchart.annotation_2;align=left;labelPosition=right;pointerEvents=1;strokeColor=default;fontSize=13;gradientColor=none;" parent="1" vertex="1">
          <mxGeometry x="720" y="573.12" width="50" height="76.25" as="geometry" />
        </mxCell>
        <mxCell id="36" value="Возвращает:" style="text;html=1;align=left;verticalAlign=middle;resizable=0;points=[];autosize=1;strokeColor=none;fillColor=none;fontSize=12;" parent="1" vertex="1">
          <mxGeometry x="752.5" y="573.12" width="100" height="30" as="geometry" />
        </mxCell>
        <mxCell id="37" value="&lt;br&gt;центры кластеров (clusterCenters),&lt;br&gt;кластеры с номерами входящих &lt;br&gt;в них объектов (clusterContents)." style="text;html=1;align=left;verticalAlign=middle;resizable=0;points=[];autosize=1;strokeColor=none;fillColor=none;fontSize=12;" parent="1" vertex="1">
          <mxGeometry x="762.5" y="579.37" width="220" height="70" as="geometry" />
        </mxCell>
        <mxCell id="GK41XVW3z9lgQCCNO5Ck-37" value="" style="ellipse;whiteSpace=wrap;html=1;aspect=fixed;" vertex="1" parent="1">
          <mxGeometry x="305" y="480.62" width="70" height="70" as="geometry" />
        </mxCell>
        <mxCell id="GK41XVW3z9lgQCCNO5Ck-38" value="А" style="text;html=1;align=center;verticalAlign=middle;resizable=0;points=[];autosize=1;strokeColor=none;fillColor=none;" vertex="1" parent="1">
          <mxGeometry x="325" y="500.62" width="30" height="30" as="geometry" />
        </mxCell>
        <mxCell id="GK41XVW3z9lgQCCNO5Ck-42" style="edgeStyle=orthogonalEdgeStyle;rounded=0;orthogonalLoop=1;jettySize=auto;html=1;exitX=0.5;exitY=1;exitDx=0;exitDy=0;entryX=0.5;entryY=0;entryDx=0;entryDy=0;" edge="1" parent="1" source="GK41XVW3z9lgQCCNO5Ck-40" target="21">
          <mxGeometry relative="1" as="geometry" />
        </mxCell>
        <mxCell id="GK41XVW3z9lgQCCNO5Ck-40" value="" style="ellipse;whiteSpace=wrap;html=1;aspect=fixed;" vertex="1" parent="1">
          <mxGeometry x="582.5" y="270.62" width="70" height="70" as="geometry" />
        </mxCell>
        <mxCell id="GK41XVW3z9lgQCCNO5Ck-41" value="А" style="text;html=1;align=center;verticalAlign=middle;resizable=0;points=[];autosize=1;strokeColor=none;fillColor=none;" vertex="1" parent="1">
          <mxGeometry x="602.5" y="290.62" width="30" height="30" as="geometry" />
        </mxCell>
      </root>
    </mxGraphModel>
  </diagram>
</mxfile>
